<svg width="26" height="27" viewBox="0 0 26 27" fill="none" xmlns="http://www.w3.org/2000/svg">
<path d="M18.4167 14.5833H14.0833V18.9167H11.9167V14.5833H7.58333V12.4167H11.9167V8.08333H14.0833V12.4167H18.4167V14.5833ZM20.5833 3.75H5.41667C4.21417 3.75 3.25 4.71417 3.25 5.91667V21.0833C3.25 21.658 3.47827 22.2091 3.8846 22.6154C4.29093 23.0217 4.84203 23.25 5.41667 23.25H20.5833C21.158 23.25 21.7091 23.0217 22.1154 22.6154C22.5217 22.2091 22.75 21.658 22.75 21.0833V5.91667C22.75 5.34203 22.5217 4.79093 22.1154 4.3846C21.7091 3.97827 21.158 3.75 20.5833 3.75Z" fill="#787878"/>
</svg>
