<svg width="36" height="37" viewBox="0 0 36 37" fill="none" xmlns="http://www.w3.org/2000/svg">
<g clip-path="url(#clip0_3113_32082)">
<path d="M18.2284 11.1411C16.8064 11.1411 14.6059 9.52412 12.2884 9.58112C9.22841 9.62162 6.42341 11.3556 4.84691 14.1021C1.67141 19.6146 4.02791 27.7566 7.12541 32.2371C8.64491 34.4181 10.4374 36.8721 12.8134 36.7956C15.0934 36.6981 15.9484 35.3151 18.7159 35.3151C21.4624 35.3151 22.2409 36.7956 24.6559 36.7371C27.1114 36.6981 28.6699 34.5171 30.1699 32.3151C31.9039 29.7831 32.6239 27.3276 32.6629 27.1926C32.6044 27.1731 27.8899 25.3611 27.8329 19.9071C27.7939 15.3471 31.5529 13.1661 31.7284 13.0686C29.5849 9.93362 26.2939 9.58262 25.1434 9.50462C22.1434 9.27062 19.6309 11.1396 18.2284 11.1396V11.1411ZM23.2954 6.54212C24.5599 5.02412 25.3954 2.90162 25.1629 0.797119C23.3524 0.875119 21.1699 2.00462 19.8649 3.52412C18.6949 4.86812 17.6839 7.03112 17.9554 9.09512C19.9624 9.25112 22.0279 8.06312 23.2939 6.54362" fill="#BFBFBF"/>
</g>
<defs>
<clipPath id="clip0_3113_32082">
<rect width="36" height="36" fill="white" transform="translate(0 0.797119)"/>
</clipPath>
</defs>
</svg>
