<svg width="135" height="25" viewBox="0 0 135 25" fill="none" xmlns="http://www.w3.org/2000/svg">
<g clip-path="url(#clip0_3113_32071)">
<path d="M127.27 10.3727L130.156 17.1944H130.19L133.008 10.3725H135L128.924 24.0659H127.034L129.296 19.2757L125.296 10.3725H127.27L127.27 10.3727ZM120.722 10.0589C122.072 10.0589 123.135 10.4058 123.911 11.1159C124.688 11.8264 125.076 12.7843 125.076 14.0233V19.887H123.337V18.5657H123.254C122.494 19.6558 121.498 20.2008 120.249 20.2008C119.186 20.2008 118.291 19.887 117.566 19.2759C116.84 18.6483 116.485 17.8721 116.485 16.9469C116.485 15.9722 116.857 15.1794 117.633 14.6011C118.393 14.023 119.405 13.7257 120.671 13.7257C121.751 13.7257 122.646 13.9242 123.355 14.3038V13.8909C123.355 13.2633 123.101 12.7513 122.595 12.3054C122.089 11.8757 121.498 11.661 120.823 11.661C119.811 11.661 119.001 12.0739 118.409 12.9165L116.806 11.9255C117.684 10.6865 119.001 10.0589 120.722 10.0589H120.722ZM111.507 5.97891C112.739 5.97891 113.785 6.3753 114.646 7.18485C115.523 7.99414 115.945 8.96859 115.945 10.1085C115.945 11.2811 115.506 12.2723 114.646 13.0486C113.802 13.8416 112.756 14.238 111.507 14.238H108.503V19.8705H106.68V5.97891H111.507ZM120.958 15.1299C120.216 15.1299 119.608 15.3116 119.101 15.6584C118.612 16.0218 118.359 16.4514 118.359 16.9634C118.359 17.4259 118.561 17.8223 118.966 18.1196C119.371 18.4336 119.844 18.5823 120.384 18.5823C121.143 18.5823 121.836 18.3015 122.443 17.7565C123.051 17.1947 123.337 16.5505 123.337 15.7905C122.764 15.3446 121.971 15.1299 120.958 15.1299ZM111.557 7.71311H108.502V12.5531H111.557C112.283 12.5531 112.89 12.3219 113.363 11.8429C113.853 11.3639 114.089 10.8021 114.089 10.1415C114.089 9.49736 113.853 8.93556 113.363 8.45659C112.89 7.96111 112.283 7.71336 111.557 7.71336V7.71311Z" fill="#BFBFBF"/>
<path d="M80.9247 10.0753C82.1566 10.0753 83.1359 10.6038 83.6424 11.1984H83.7263V10.3726H85.8868V19.4575C85.8868 23.1907 83.6424 24.7269 80.9759 24.7269C78.4776 24.7269 76.9757 23.075 76.4017 21.737L78.3766 20.9277C78.7307 21.7535 79.5916 22.7282 80.9759 22.7282C82.6803 22.7282 83.7263 21.6874 83.7263 19.7548V19.0281H83.6424C83.1359 19.6392 82.1566 20.1842 80.9247 20.1842C78.3426 20.1842 75.9801 17.9873 75.9801 15.1463C75.9801 12.2887 78.3426 10.0753 80.9247 10.0753ZM95.7771 10.0918C98.4608 10.0918 99.7602 12.1731 100.199 13.3127L100.435 13.8908L93.5325 16.6825C94.0556 17.6903 94.8825 18.2188 96.03 18.2188C97.1783 18.1858 97.9883 17.6407 98.5786 16.7981L100.334 17.9543C99.7602 18.7803 98.393 20.201 96.03 20.201C93.0935 20.201 90.9166 17.9876 90.9166 15.1463C90.9166 12.1398 93.1275 10.0918 95.7771 10.0918ZM45.2481 4.49234C47.695 4.49234 49.4334 5.43376 50.733 6.65621L49.1802 8.17569C48.2352 7.31686 46.9693 6.63969 45.2309 6.63969C42.0076 6.63969 39.476 9.18344 39.476 12.3385C39.476 15.4934 41.9907 18.0371 45.2309 18.0371C47.3237 18.0371 48.5221 17.2113 49.2815 16.4681C49.9061 15.8567 50.3111 14.9814 50.4799 13.7754H45.1806V11.6283H52.6064C52.6908 12.008 52.7245 12.4707 52.7245 12.9661C52.7245 14.5685 52.2689 16.5669 50.834 17.9876C49.4165 19.4247 47.6277 20.1845 45.2481 20.1845C40.8263 20.1845 37.1133 16.666 37.1133 12.3385C37.1133 8.01079 40.826 4.49234 45.2481 4.49234ZM58.6658 10.0753C61.5182 10.0753 63.847 12.2061 63.847 15.1298C63.847 18.0371 61.5182 20.1842 58.6658 20.1842C55.8137 20.1842 53.4847 18.0371 53.4847 15.1298C53.4847 12.2059 55.8137 10.0753 58.6658 10.0753ZM69.9391 10.0753C72.7913 10.0753 75.1203 12.2061 75.1203 15.1298C75.1203 18.0371 72.7913 20.1842 69.9391 20.1842C67.0867 20.1842 64.7574 18.0371 64.7574 15.1298C64.7574 12.2059 67.0867 10.0753 69.9391 10.0753ZM89.786 5.02086V19.8707H87.5245V5.02086H89.786ZM58.6827 12.0738C57.1302 12.0738 55.7797 13.3127 55.7797 15.1298C55.7797 16.9303 57.1302 18.1858 58.6827 18.1858C60.2355 18.1858 61.5857 16.9303 61.5857 15.1298C61.5857 13.313 60.2355 12.074 58.6827 12.074V12.0738ZM69.9391 12.0738C68.3861 12.0738 67.0361 13.3127 67.0361 15.1298C67.0361 16.9303 68.3861 18.1858 69.9391 18.1858C71.4916 18.1858 72.8416 16.9303 72.8416 15.1298C72.8416 13.313 71.4916 12.074 69.9391 12.074V12.0738ZM81.1441 12.0575C79.5747 12.0575 78.2754 13.3623 78.2754 15.1465C78.2754 16.9138 79.5916 18.1858 81.1441 18.1858C82.6803 18.1858 83.8953 16.9138 83.8953 15.1463C83.8953 13.3623 82.6803 12.0572 81.1441 12.0572V12.0575ZM95.8446 12.0245C94.6971 12.0245 93.0935 13.032 93.161 14.9811L97.7686 13.098C97.5155 12.4704 96.7561 12.0245 95.8446 12.0245Z" fill="#BFBFBF"/>
<path d="M25.1446 5.26048C22.4137 3.71777 18.9219 4.63442 17.3441 7.30693L13.3661 14.0514C12.2152 15.9988 13.697 16.6793 15.3492 17.6489L19.1769 19.8114C20.4731 20.5431 22.1287 20.1085 22.8762 18.8416L26.9658 11.9105C28.3395 9.58151 27.5242 6.605 25.1446 5.26022V5.26048Z" fill="#EA4335"/>
<path d="M20.6435 8.05227L16.8161 5.88995C14.703 4.74208 13.5065 4.66595 12.639 6.01562L6.99378 15.5844C5.41702 18.2554 6.35569 21.6711 9.0847 23.2107C11.4643 24.5552 14.5055 23.7573 15.8795 21.4283L21.6328 11.6745C22.3838 10.4058 21.9398 8.78362 20.6435 8.05201V8.05227Z" fill="#FBBC04"/>
<path d="M21.3799 3.13334L18.6915 1.61334C15.7178 -0.0661401 11.9154 0.929989 10.1992 3.8407L5.08023 12.5168C4.32402 13.7968 4.77305 15.4355 6.08113 16.1741L9.092 17.8753C10.5788 18.7163 12.4791 18.2172 13.3382 16.762L19.1861 6.84973C20.3977 4.79631 23.0795 4.09257 25.1773 5.27863L21.3799 3.13334Z" fill="#34A853"/>
<path d="M10.9266 6.32271L8.02015 4.684C6.72394 3.95419 5.06834 4.38671 4.32083 5.652L0.834035 11.549C-0.882469 14.4515 0.135305 18.1645 3.10873 19.8399L5.32147 21.0868L8.00486 22.5999L9.16923 23.2556C7.10204 21.9013 6.4455 19.1872 7.70954 17.0499L8.61236 15.5235L11.9188 9.93226C12.6645 8.67032 12.2207 7.05303 10.9261 6.32297L10.9266 6.32271Z" fill="#4285F4"/>
</g>
<defs>
<clipPath id="clip0_3113_32071">
<rect width="135" height="24" fill="white" transform="translate(0 0.797119)"/>
</clipPath>
</defs>
</svg>
