<svg width="32" height="33" viewBox="0 0 32 33" fill="none" xmlns="http://www.w3.org/2000/svg">
<g clip-path="url(#clip0_3113_32062)">
<path d="M16 32.7971C7.163 32.7971 0 25.6341 0 16.7971C0 7.96012 7.163 0.797119 16 0.797119C24.837 0.797119 32 7.96012 32 16.7971C32 25.6341 24.837 32.7971 16 32.7971ZM22.681 8.16512L11.694 14.4141L6.458 11.4371L5.918 12.5101L11.694 15.8351L23.626 9.02312L22.681 8.16512ZM20.279 6.79712L11.694 11.7051L7.888 9.53312L7.106 10.4711L11.694 13.0731L21.547 7.44112L20.28 6.79712H20.279ZM24.463 9.90812L11.694 17.2031L5.486 13.6631L5.189 14.8431L11.694 18.5441L25.164 10.8471L24.463 9.90812ZM26.406 13.3681L25.812 11.8661L11.694 19.9121L5 16.1301V16.8541C5 18.3191 5.293 19.7691 5.864 21.1191C6.40537 22.4266 7.20383 23.612 8.212 24.6051C9.21982 25.5831 10.4005 26.3653 11.694 26.9121C13.062 27.5021 14.493 27.7971 15.987 27.7971C17.463 27.7971 18.893 27.5021 20.279 26.9121C21.5877 26.379 22.7797 25.5953 23.788 24.6051C24.7847 23.6026 25.5816 22.4196 26.136 21.1191L26.406 20.3951C26.802 19.2511 27 18.0701 27 16.8551C27 15.6381 26.802 14.4771 26.406 13.3681Z" fill="#BFBFBF"/>
</g>
<defs>
<clipPath id="clip0_3113_32062">
<rect width="32" height="32" fill="white" transform="translate(0 0.797119)"/>
</clipPath>
</defs>
</svg>
