<svg width="32" height="33" viewBox="0 0 32 33" fill="none" xmlns="http://www.w3.org/2000/svg">
<g clip-path="url(#clip0_3113_32084)">
<path d="M15.9241 1.03958C18.4201 1.03958 20.7961 1.61291 22.9268 2.63558C23.2614 2.78625 23.5974 2.96625 23.9308 3.14758L22.4694 4.44091L20.2788 2.18491L16.5028 5.49558L14.2801 3.11691L7.33743 9.28758L11.7828 14.1342L10.0468 15.6382L14.4334 20.4849L12.6974 21.9889L18.9694 28.8822L22.6828 25.5102L25.9108 29.1236C25.2708 29.6049 24.5708 30.0876 23.8108 30.5089C21.4105 31.8524 18.7054 32.5567 15.9548 32.5542C7.15476 32.5529 9.82168e-05 25.4796 9.82168e-05 16.7836C-0.0305684 8.14358 7.1241 1.03958 15.9241 1.03958ZM13.0001 15.8209L16.8068 12.4489L20.2174 16.2116L16.4108 19.5836L13.0001 15.8209ZM15.7108 22.3222L19.4868 18.9222L22.9268 22.6836L19.1201 26.0556L15.7108 22.3222ZM10.2934 9.41025L14.0988 6.03825L17.5081 9.80091L13.7028 13.1716L10.2934 9.41025ZM17.2641 7.60358L20.0961 5.07558L22.6548 7.87425L19.8228 10.4329L17.2641 7.60358ZM22.3201 19.1916L25.1508 16.6636L27.7081 19.4916L24.8761 22.0222L22.3201 19.1916ZM24.8161 24.8809L27.6481 22.3516L30.2041 25.1516L27.3734 27.7089L24.8161 24.8809ZM25.9734 11.8769L27.8601 10.1916L29.5654 12.0582L27.6774 13.7436L25.9734 11.8769ZM23.5374 6.30891L25.4254 4.59425L27.1321 6.49025L25.2414 8.17558L23.5374 6.30891ZM28.3774 17.4462L30.2654 15.7609L32.0014 17.6276L30.0841 19.3129L28.3774 17.4462ZM19.8841 13.2622L22.7161 10.7342L25.2734 13.5329L22.4414 16.0622L19.8841 13.2622Z" fill="#BFBFBF"/>
</g>
<defs>
<clipPath id="clip0_3113_32084">
<rect width="32" height="32" fill="white" transform="translate(0 0.797028)"/>
</clipPath>
</defs>
</svg>
