<svg width="24" height="25" viewBox="0 0 24 25" fill="none" xmlns="http://www.w3.org/2000/svg">
<path d="M16 17.7635V19.7635H2V17.7635C2 17.7635 2 13.7635 9 13.7635C16 13.7635 16 17.7635 16 17.7635ZM12.5 8.26354C12.5 7.57131 12.2947 6.89462 11.9101 6.31905C11.5256 5.74347 10.9789 5.29487 10.3394 5.02996C9.69985 4.76506 8.99612 4.69574 8.31718 4.83079C7.63825 4.96584 7.01461 5.29918 6.52513 5.78867C6.03564 6.27815 5.7023 6.90179 5.56725 7.58073C5.4322 8.25966 5.50152 8.96339 5.76642 9.60293C6.03133 10.2425 6.47993 10.7891 7.0555 11.1737C7.63108 11.5583 8.30777 11.7635 9 11.7635C9.92826 11.7635 10.8185 11.3948 11.4749 10.7384C12.1313 10.082 12.5 9.1918 12.5 8.26354ZM15.94 13.7635C16.5547 14.2393 17.0578 14.844 17.4137 15.535C17.7696 16.2261 17.9697 16.9868 18 17.7635V19.7635H22V17.7635C22 17.7635 22 14.1335 15.94 13.7635ZM15 4.76354C14.3117 4.75971 13.6385 4.9655 13.07 5.35354C13.6774 6.20228 14.0041 7.21983 14.0041 8.26354C14.0041 9.30726 13.6774 10.3248 13.07 11.1735C13.6385 11.5616 14.3117 11.7674 15 11.7635C15.9283 11.7635 16.8185 11.3948 17.4749 10.7384C18.1313 10.082 18.5 9.1918 18.5 8.26354C18.5 7.33528 18.1313 6.44504 17.4749 5.78867C16.8185 5.13229 15.9283 4.76354 15 4.76354Z" fill="#BFBFBF"/>
</svg>
