<svg width="24" height="24" viewBox="0 0 24 24" fill="none" xmlns="http://www.w3.org/2000/svg">
<path d="M16.0663 16.4195L7.58104 7.93421C7.48638 7.83956 7.48638 7.67531 7.58104 7.58066C7.67569 7.48601 7.83994 7.48601 7.93459 7.58066L16.4199 16.0659C16.5145 16.1606 16.5145 16.3248 16.4199 16.4195C16.3252 16.5141 16.161 16.5141 16.0663 16.4195Z" fill="white" stroke="white"/>
<path d="M7.58013 16.4195C7.48548 16.3248 7.48548 16.1606 7.58013 16.0659L16.0654 7.58066C16.1601 7.48601 16.3243 7.48601 16.419 7.58066C16.5136 7.67531 16.5136 7.83956 16.419 7.93421L7.93368 16.4195C7.83903 16.5141 7.67478 16.5141 7.58013 16.4195Z" fill="white" stroke="white"/>
</svg>
