<svg width="16" height="16" viewBox="0 0 16 16" fill="none" xmlns="http://www.w3.org/2000/svg">
<path d="M11.8664 1.39984L5.2464 3.05984C4.27974 3.29984 3.29974 4.27984 3.05974 5.2465L1.39974 11.8665C0.899736 13.8665 2.1264 15.0998 4.13307 14.5998L10.7531 12.9465C11.7131 12.7065 12.6997 11.7198 12.9397 10.7598L14.5997 4.13317C15.0997 2.13317 13.8664 0.899838 11.8664 1.39984Z" stroke="white" stroke-width="1.5" stroke-linecap="round" stroke-linejoin="round"/>
<path d="M8.00033 10.3332C9.28899 10.3332 10.3337 9.2885 10.3337 7.99984C10.3337 6.71117 9.28899 5.6665 8.00033 5.6665C6.71166 5.6665 5.66699 6.71117 5.66699 7.99984C5.66699 9.2885 6.71166 10.3332 8.00033 10.3332Z" stroke="white" stroke-width="1.5" stroke-linecap="round" stroke-linejoin="round"/>
</svg>
