<svg width="16" height="17" viewBox="0 0 16 17" fill="none" xmlns="http://www.w3.org/2000/svg">
<path d="M13.8337 3.2335V7.76683C13.8337 8.21026 13.7371 8.39126 13.6452 8.47765C13.5457 8.57127 13.3334 8.66683 12.847 8.66683H10.1537C9.6672 8.66683 9.45493 8.57127 9.35543 8.47765C9.26359 8.39126 9.16699 8.21026 9.16699 7.76683V3.2335C9.16699 2.79007 9.26359 2.60907 9.35543 2.52267C9.45493 2.42906 9.6672 2.3335 10.1537 2.3335H12.847C13.3334 2.3335 13.5457 2.42906 13.6452 2.52267C13.7371 2.60907 13.8337 2.79007 13.8337 3.2335Z" fill="#E01E5A" stroke="#E01E5A"/>
<path d="M6.83366 9.2335V13.7668C6.83366 14.2103 6.73706 14.3913 6.64522 14.4777C6.54572 14.5713 6.33345 14.6668 5.84699 14.6668H3.15366C2.6672 14.6668 2.45493 14.5713 2.35543 14.4777C2.26359 14.3913 2.16699 14.2103 2.16699 13.7668V9.2335C2.16699 8.79007 2.26359 8.60907 2.35543 8.52267C2.45493 8.42906 2.6672 8.3335 3.15366 8.3335H5.84699C6.33345 8.3335 6.54572 8.42906 6.64522 8.52267C6.73706 8.60907 6.83366 8.79007 6.83366 9.2335Z" fill="#E01E5A" stroke="#E01E5A"/>
<path d="M14.3337 13.7667V11.9C14.3337 10.9 13.907 10.5 12.847 10.5H10.1537C9.09366 10.5 8.66699 10.9 8.66699 11.9V13.7667C8.66699 14.7667 9.09366 15.1667 10.1537 15.1667H12.847C13.907 15.1667 14.3337 14.7667 14.3337 13.7667Z" fill="#E01E5A"/>
<path d="M7.33366 5.10016V3.2335C7.33366 2.2335 6.90699 1.8335 5.84699 1.8335H3.15366C2.09366 1.8335 1.66699 2.2335 1.66699 3.2335V5.10016C1.66699 6.10016 2.09366 6.50016 3.15366 6.50016H5.84699C6.90699 6.50016 7.33366 6.10016 7.33366 5.10016Z" fill="#E01E5A"/>
</svg>
