<svg width="36" height="37" viewBox="0 0 36 37" fill="none" xmlns="http://www.w3.org/2000/svg">
<path d="M11.955 24.7971L7.5 29.2971C7.005 29.7471 6.345 30.0471 5.625 30.0471C4.92881 30.0471 4.26113 29.7706 3.76884 29.2783C3.27656 28.786 3 28.1183 3 27.4221V27.0471L4.5 15.9771C4.65121 14.2906 5.42751 12.7215 6.67644 11.578C7.92537 10.4346 9.55668 9.79934 11.25 9.79712H24.75C28.29 9.79712 31.185 12.5121 31.5 15.9771L33 27.0471V27.4221C33 28.1183 32.7234 28.786 32.2312 29.2783C31.7389 29.7706 31.0712 30.0471 30.375 30.0471C29.655 30.0471 28.995 29.7471 28.5 29.2971L24.045 24.7971H11.955ZM10.5 12.7971V15.7971H7.5V17.2971H10.5V20.2971H12V17.2971H15V15.7971H12V12.7971H10.5ZM24.75 12.7971C24.4516 12.7971 24.1655 12.9156 23.9545 13.1266C23.7435 13.3376 23.625 13.6238 23.625 13.9221C23.625 14.2205 23.7435 14.5066 23.9545 14.7176C24.1655 14.9286 24.4516 15.0471 24.75 15.0471C25.0484 15.0471 25.3345 14.9286 25.5455 14.7176C25.7565 14.5066 25.875 14.2205 25.875 13.9221C25.875 13.6238 25.7565 13.3376 25.5455 13.1266C25.3345 12.9156 25.0484 12.7971 24.75 12.7971ZM22.125 15.4221C21.8266 15.4221 21.5405 15.5406 21.3295 15.7516C21.1185 15.9626 21 16.2488 21 16.5471C21 16.8455 21.1185 17.1316 21.3295 17.3426C21.5405 17.5536 21.8266 17.6721 22.125 17.6721C22.4234 17.6721 22.7095 17.5536 22.9205 17.3426C23.1315 17.1316 23.25 16.8455 23.25 16.5471C23.25 16.2488 23.1315 15.9626 22.9205 15.7516C22.7095 15.5406 22.4234 15.4221 22.125 15.4221V15.4221ZM27.375 15.4221C27.0766 15.4221 26.7905 15.5406 26.5795 15.7516C26.3685 15.9626 26.25 16.2488 26.25 16.5471C26.25 16.8455 26.3685 17.1316 26.5795 17.3426C26.7905 17.5536 27.0766 17.6721 27.375 17.6721C27.6734 17.6721 27.9595 17.5536 28.1705 17.3426C28.3815 17.1316 28.5 16.8455 28.5 16.5471C28.5 16.2488 28.3815 15.9626 28.1705 15.7516C27.9595 15.5406 27.6734 15.4221 27.375 15.4221ZM24.75 18.0471C24.4516 18.0471 24.1655 18.1656 23.9545 18.3766C23.7435 18.5876 23.625 18.8738 23.625 19.1721C23.625 19.4705 23.7435 19.7566 23.9545 19.9676C24.1655 20.1786 24.4516 20.2971 24.75 20.2971C25.0484 20.2971 25.3345 20.1786 25.5455 19.9676C25.7565 19.7566 25.875 19.4705 25.875 19.1721C25.875 18.8738 25.7565 18.5876 25.5455 18.3766C25.3345 18.1656 25.0484 18.0471 24.75 18.0471Z" fill="#606060"/>
</svg>
