<svg width="36" height="37" viewBox="0 0 36 37" fill="none" xmlns="http://www.w3.org/2000/svg">
<g clip-path="url(#clip0_3103_23294)">
<path d="M18 3.79712C26.2845 3.79712 33 10.5126 33 18.7971C33 27.0816 26.2845 33.7971 18 33.7971C9.7155 33.7971 3 27.0816 3 18.7971H6C6 25.4241 11.373 30.7971 18 30.7971C24.627 30.7971 30 25.4241 30 18.7971C30 12.1701 24.627 6.79712 18 6.79712C14.304 6.79712 10.998 8.46812 8.7975 11.0946L12 14.2971H3V5.29712L6.6705 8.96612C9.42 5.80112 13.476 3.79712 18 3.79712ZM19.5 11.2971V18.1746L24.3645 23.0391L22.242 25.1616L16.5 19.4166V11.2971H19.5Z" fill="#606060"/>
</g>
<defs>
<clipPath id="clip0_3103_23294">
<rect width="36" height="36" fill="white" transform="translate(0 0.797119)"/>
</clipPath>
</defs>
</svg>
