<svg width="37" height="37" viewBox="0 0 37 37" fill="none" xmlns="http://www.w3.org/2000/svg">
<path d="M29 8.29712H26V6.79712C26 5.97212 25.325 5.29712 24.5 5.29712H12.5C11.675 5.29712 11 5.97212 11 6.79712V8.29712H8C6.35 8.29712 5 9.64712 5 11.2971V12.7971C5 16.6221 7.88 19.7421 11.585 20.2071C12.0594 21.3312 12.8003 22.3228 13.7437 23.0964C14.6872 23.87 15.8048 24.4022 17 24.6471V29.2971H12.5C11.675 29.2971 11 29.9721 11 30.7971C11 31.6221 11.675 32.2971 12.5 32.2971H24.5C25.325 32.2971 26 31.6221 26 30.7971C26 29.9721 25.325 29.2971 24.5 29.2971H20V24.6471C21.1952 24.4022 22.3128 23.87 23.2563 23.0964C24.1997 22.3228 24.9406 21.3312 25.415 20.2071C29.12 19.7421 32 16.6221 32 12.7971V11.2971C32 9.64712 30.65 8.29712 29 8.29712ZM8 12.7971V11.2971H11V17.0271C9.26 16.3971 8 14.7471 8 12.7971ZM29 12.7971C29 14.7471 27.74 16.3971 26 17.0271V11.2971H29V12.7971Z" fill="#606060"/>
</svg>
