<svg width="36" height="37" viewBox="0 0 36 37" fill="none" xmlns="http://www.w3.org/2000/svg">
<path fill-rule="evenodd" clip-rule="evenodd" d="M25.0049 20.4922C27.0599 21.8872 28.4999 23.7772 28.4999 26.2972V30.7972H32.9999C33.8249 30.7972 34.4999 30.1222 34.4999 29.2972V26.2972C34.4999 23.0272 29.1449 21.0922 25.0049 20.4922V20.4922Z" fill="#606060"/>
<path d="M13.5 18.7971C16.8137 18.7971 19.5 16.1108 19.5 12.7971C19.5 9.48341 16.8137 6.79712 13.5 6.79712C10.1863 6.79712 7.5 9.48341 7.5 12.7971C7.5 16.1108 10.1863 18.7971 13.5 18.7971Z" fill="#606060"/>
<path fill-rule="evenodd" clip-rule="evenodd" d="M22.5 18.7971C25.815 18.7971 28.5 16.1121 28.5 12.7971C28.5 9.48212 25.815 6.79712 22.5 6.79712C21.795 6.79712 21.135 6.94712 20.505 7.15712C21.7958 8.75344 22.5 10.7442 22.5 12.7971C22.5 14.85 21.7958 16.8408 20.505 18.4371C21.135 18.6471 21.795 18.7971 22.5 18.7971ZM13.5 20.2971C9.495 20.2971 1.5 22.3071 1.5 26.2971V29.2971C1.5 30.1221 2.175 30.7971 3 30.7971H24C24.825 30.7971 25.5 30.1221 25.5 29.2971V26.2971C25.5 22.3071 17.505 20.2971 13.5 20.2971Z" fill="#606060"/>
</svg>
