<svg width="174" height="21" viewBox="0 0 174 21" fill="none" xmlns="http://www.w3.org/2000/svg">
<path d="M137.803 13.9637L143.806 19.4941L138.921 20.8252L135.785 18.6913L137.803 13.9637ZM153.391 20.4272H156.822L158.832 14.9381L136.952 1.13963L135.415 2.24432L153.391 20.4272ZM155.381 6.78661L156.019 6.92385L156.396 2.68346L154.475 1.55817L149.96 2.86871L155.381 6.78661ZM3.46044 20.4067C4.27006 20.4067 5.03859 20.4067 5.77273 20.4067C9.29023 20.4067 12.0026 19.4804 13.91 17.6278C14.8598 16.7122 15.6076 15.6079 16.105 14.386C16.6025 13.1641 16.839 11.8516 16.7989 10.533C16.8748 8.07217 15.9774 5.68067 14.3013 3.87735C12.5037 1.96986 9.73414 1.01611 5.99251 1.01611L3.24803 1.07101C2.34922 1.07101 1.49845 1.07101 0.688826 1.07101H0.332031V20.3243H0.715963C1.75886 20.3792 2.6714 20.3861 3.46044 20.4067ZM11.2892 5.91521C11.936 6.49748 12.4453 7.21639 12.78 8.01983C13.1146 8.82327 13.2661 9.6911 13.2239 10.5604C13.2669 11.4687 13.1154 12.3757 12.7793 13.2207C12.4433 14.0656 11.9305 14.8289 11.2754 15.4595C9.97179 16.6672 8.17426 17.271 5.88262 17.271C5.27884 17.271 4.5516 17.271 3.70768 17.2161V4.30276C4.48299 4.24787 5.224 4.22043 5.93756 4.22043C8.20633 4.21128 9.9901 4.77621 11.2892 5.91521ZM47.0772 20.3792H50.4595V4.30276H56.7033V1.13963H40.8401V4.30276H47.0772V20.3792ZM62.5902 15.4595H70.8236L72.8271 20.3792H76.4292L68.2919 1.07101H65.321L57.1767 20.3792H60.6073L62.5902 15.4595ZM63.88 12.2964L66.714 5.4349L69.5201 12.2964H63.88ZM93.1912 17.4356H85.1909C85.8153 16.921 86.2613 16.5368 86.5632 16.2829C87.1121 15.7683 87.7226 15.1439 88.3813 14.4097C89.12 13.6465 89.7907 12.8199 90.385 11.9396C90.9769 11.0528 91.467 10.1022 91.8464 9.1058C92.2444 8.09768 92.4581 7.02632 92.4776 5.94267C92.4916 5.28563 92.3724 4.63255 92.1272 4.02286C91.8819 3.41317 91.5155 2.85951 91.0504 2.39527C90.5208 1.8809 89.8898 1.48277 89.1974 1.22638C88.5051 0.969991 87.7667 0.860979 87.0298 0.906321C85.6483 0.863025 84.294 1.29674 83.1945 2.13453C82.1501 2.96344 81.4584 4.15752 81.2595 5.47607L83.9011 6.65624C84.3585 4.9363 85.2733 4.07405 86.6456 4.06947C86.9797 4.05125 87.3138 4.10285 87.6268 4.22099C87.9399 4.33913 88.2249 4.52121 88.4637 4.75562C88.9069 5.26491 89.1334 5.92731 89.0949 6.60136C89.0949 8.3762 87.9514 10.5673 85.6643 13.1747C84.8227 14.149 83.2927 15.7157 81.0742 17.8748V20.4067H93.1704L93.1912 17.4356ZM100.999 20.4067C101.802 20.4067 102.57 20.4067 103.304 20.4067C106.826 20.4067 109.541 19.4804 111.449 17.6278C112.397 16.7111 113.144 15.6067 113.641 14.385C114.139 13.1634 114.376 11.8514 114.337 10.533C114.411 8.07133 113.511 5.67998 111.833 3.87735C110.035 1.96986 107.266 1.01611 103.524 1.01611L100.78 1.07101C99.8809 1.07101 99.0232 1.07101 98.2205 1.07101H97.8637V20.3243H98.2479C99.2908 20.3792 100.21 20.3861 100.999 20.4067ZM108.821 5.91521C109.469 6.49683 109.979 7.21546 110.315 8.01893C110.651 8.8224 110.804 9.69056 110.763 10.5604C110.806 11.4694 110.654 12.3771 110.317 13.2222C109.979 14.0674 109.464 14.8303 108.807 15.4595C107.503 16.6672 105.706 17.271 103.414 17.271C102.81 17.271 102.09 17.271 101.246 17.2161V4.30276C102.014 4.24787 102.756 4.22043 103.469 4.22043C105.747 4.21128 107.531 4.77621 108.821 5.91521ZM123.991 13.1747L129.295 20.3792H133.411L127.373 12.5365C128.5 12.1423 129.47 11.3954 130.138 10.4066C130.807 9.41781 131.139 8.23981 131.085 7.04735C131.085 3.09057 128.757 1.10988 124.101 1.10531C123.415 1.10531 122.468 1.10531 121.356 1.10531C120.245 1.10531 119.202 1.10531 118.248 1.10531V20.3586H121.624V13.1541L123.991 13.1747ZM127.511 7.04049C127.527 7.45981 127.441 7.87678 127.261 8.25563C127.08 8.63448 126.81 8.96389 126.475 9.21558C125.706 9.77038 124.773 10.0507 123.826 10.0115H121.624V4.30276C121.933 4.30276 122.276 4.30276 122.639 4.30276C123.003 4.30276 123.326 4.30276 123.49 4.30276H123.936C126.317 4.23415 127.511 5.17417 127.511 7.04735V7.04049ZM21.6288 17.9297C23.5981 19.7105 26.1613 20.6919 28.8163 20.6818C31.4713 20.6716 34.0271 19.6706 35.9827 17.8748C37.8199 15.9478 38.8448 13.3875 38.8448 10.7251C38.8448 8.06264 37.8199 5.50239 35.9827 3.57545C35.0301 2.66215 33.9043 1.9488 32.6717 1.47743C31.4391 1.00606 30.1248 0.786213 28.8059 0.830854C27.4864 0.786479 26.1713 1.01231 24.9422 1.49449C23.713 1.97667 22.5954 2.70502 21.658 3.63481C20.7205 4.5646 19.983 5.67623 19.4907 6.9014C18.9984 8.12658 18.7618 9.43945 18.7952 10.7594C18.7434 12.0859 18.9687 13.4086 19.4566 14.6432C19.9445 15.8778 20.6842 16.997 21.6288 17.9297ZM24.1884 5.88776C25.4112 4.67015 27.0666 3.98655 28.7922 3.98655C30.5178 3.98655 32.1732 4.67015 33.396 5.88776C34.0179 6.53201 34.5041 7.29456 34.8259 8.1302C35.1476 8.96585 35.2984 9.85757 35.2691 10.7525C35.329 12.5344 34.6969 14.2703 33.5056 15.5968C32.9104 16.2413 32.1812 16.7474 31.3692 17.0794C30.5571 17.4113 29.6822 17.561 28.8059 17.518C27.9487 17.5388 27.0967 17.3784 26.3057 17.0473C25.5147 16.7163 24.8023 16.222 24.2155 15.5968C23.035 14.2551 22.384 12.5293 22.384 10.7423C22.384 8.95521 23.035 7.22938 24.2155 5.88776H24.1884ZM166.805 13.504C169.019 13.504 170.741 12.9002 171.971 11.6926C172.575 11.1249 173.053 10.4375 173.376 9.67418C173.698 8.91088 173.858 8.0886 173.844 7.26006C173.851 6.46835 173.721 5.6814 173.46 4.93403C173.189 4.21025 172.776 3.54778 172.246 2.98535C171.601 2.33123 170.804 1.84784 169.927 1.57875C168.784 1.22058 167.591 1.04913 166.393 1.07101C165.439 1.07101 164.486 1.07101 163.532 1.07101C162.578 1.07101 161.727 1.07101 160.918 1.07101V20.3243H164.301V13.4217C164.849 13.4766 165.686 13.504 166.805 13.504ZM170.235 7.23261C170.261 7.66697 170.187 8.10149 170.018 8.50249C169.849 8.90348 169.59 9.26019 169.261 9.54494C168.513 10.1048 167.594 10.3862 166.661 10.3409C166.036 10.3409 165.24 10.2928 164.266 10.2036V4.30276L166.688 4.24788C169.083 4.23416 170.27 5.23592 170.27 7.23261H170.235Z" fill="#AAAAAA"/>
</svg>
