<svg width="261" height="30" viewBox="0 0 261 30" fill="none" xmlns="http://www.w3.org/2000/svg">
<path d="M206.206 19.7078L215.211 28.0033L207.883 30L203.18 26.7991L206.206 19.7078ZM229.588 29.4031H234.734L237.75 21.1693L204.929 0.471651L202.624 2.12868L229.588 29.4031ZM232.573 8.94213L233.53 9.14798L234.097 2.7874L231.215 1.09946L224.443 3.06528L232.573 8.94213ZM4.69261 29.3722C5.90704 29.3722 7.05984 29.3722 8.16106 29.3722C13.4373 29.3722 17.5058 27.9828 20.367 25.2039C21.7916 23.8304 22.9133 22.174 23.6595 20.3412C24.4057 18.5084 24.7604 16.5397 24.7003 14.5617C24.8142 10.8705 23.468 7.28321 20.9539 4.57824C18.2575 1.717 14.1032 0.286367 8.49071 0.286367L4.374 0.368722C3.02578 0.368722 1.74962 0.368722 0.535192 0.368722H0V29.2487H0.575897C2.14025 29.331 3.50905 29.3413 4.69261 29.3722ZM16.4357 7.63503C17.406 8.50842 18.17 9.58679 18.6719 10.792C19.1739 11.9971 19.4012 13.2989 19.3378 14.6028C19.4023 15.9653 19.175 17.3258 18.6709 18.5932C18.1668 19.8606 17.3977 21.0056 16.4151 21.9515C14.4596 23.7629 11.7633 24.6686 8.32588 24.6686C7.42021 24.6686 6.32936 24.6687 5.06347 24.5863V5.21635C6.22644 5.13401 7.33795 5.09285 8.4083 5.09285C11.8114 5.07912 14.4871 5.92652 16.4357 7.63503ZM70.1177 29.331H75.1913V5.21635H84.5569V0.471651H60.7622V5.21635H70.1177V29.331ZM93.3873 21.9515H105.737L108.743 29.331H114.146L101.94 0.368722H97.4834L85.2669 29.331H90.4128L93.3873 21.9515ZM95.322 17.2068L99.5729 6.91456L103.782 17.2068H95.322ZM139.289 24.9157H127.288C128.225 24.1438 128.894 23.5674 129.347 23.1866C130.17 22.4146 131.086 21.4781 132.074 20.3768C133.182 19.2319 134.188 17.9921 135.08 16.6716C135.967 15.3413 136.702 13.9155 137.272 12.4209C137.869 10.9087 138.189 9.30169 138.218 7.6762C138.239 6.69066 138.061 5.71104 137.693 4.7965C137.325 3.88197 136.775 3.05147 136.078 2.35511C135.283 1.58356 134.337 0.986366 133.298 0.60178C132.26 0.217194 131.152 0.0536757 130.047 0.121688C127.974 0.0567439 125.943 0.707312 124.294 1.964C122.727 3.20737 121.69 4.99849 121.391 6.97631L125.354 8.74657C126.04 6.16666 127.412 4.87328 129.47 4.86642C129.971 4.83909 130.473 4.91649 130.942 5.0937C131.412 5.2709 131.839 5.54403 132.198 5.89564C132.862 6.65958 133.202 7.65317 133.144 8.66425C133.144 11.3265 131.429 14.6131 127.998 18.5242C126.736 19.9857 124.441 22.3357 121.113 25.5744V29.3722H139.258L139.289 24.9157ZM151.001 29.3722C152.205 29.3722 153.357 29.3722 154.459 29.3722C159.742 29.3722 163.814 27.9828 166.675 25.2039C168.098 23.8289 169.218 22.1722 169.964 20.3398C170.71 18.5073 171.065 16.5394 171.008 14.5617C171.118 10.8692 169.768 7.28218 167.251 4.57824C164.555 1.717 160.401 0.286367 154.788 0.286367L150.671 0.368722C149.323 0.368722 148.037 0.368722 146.833 0.368722H146.297V29.2487H146.874C148.438 29.331 149.817 29.3413 151.001 29.3722ZM162.733 7.63503C163.705 8.50745 164.471 9.58539 164.975 10.7906C165.479 11.9958 165.708 13.2981 165.646 14.6028C165.711 15.9663 165.483 17.3278 164.977 18.5956C164.471 19.8633 163.699 21.0077 162.713 21.9515C160.757 23.7629 158.061 24.6686 154.623 24.6686C153.718 24.6686 152.637 24.6687 151.371 24.5863V5.21635C152.524 5.13401 153.635 5.09285 154.706 5.09285C158.123 5.07912 160.798 5.92652 162.733 7.63503ZM185.489 18.5242L193.444 29.331H199.619L190.562 17.567C192.252 16.9757 193.707 15.8553 194.71 14.3721C195.712 12.8889 196.211 11.1219 196.13 9.33324C196.13 3.39806 192.638 0.427033 185.653 0.420171C184.624 0.420171 183.204 0.420171 181.536 0.420171C179.869 0.420171 178.305 0.420171 176.874 0.420171V29.3001H181.938V18.4933L185.489 18.5242ZM190.768 9.32294C190.792 9.95192 190.663 10.5774 190.393 11.1457C190.122 11.7139 189.718 12.208 189.214 12.5856C188.061 13.4178 186.662 13.8383 185.241 13.7795H181.938V5.21635C182.401 5.21635 182.915 5.21635 183.461 5.21635C184.006 5.21635 184.49 5.21635 184.737 5.21635H185.406C188.977 5.11343 190.768 6.52346 190.768 9.33324V9.32294ZM31.9452 25.6567C34.8991 28.3279 38.7439 29.8001 42.7264 29.7849C46.7089 29.7696 50.5426 28.2681 53.476 25.5744C56.2318 22.6839 57.7691 18.8435 57.7691 14.8499C57.7691 10.8562 56.2318 7.01579 53.476 4.12538C52.0472 2.75543 50.3584 1.6854 48.5095 0.978347C46.6607 0.271293 44.6892 -0.0584741 42.7109 0.00848851C40.7315 -0.0580741 38.7589 0.280673 36.9152 1.00395C35.0715 1.72722 33.3951 2.81973 31.9889 4.21442C30.5827 5.60911 29.4765 7.27655 28.7381 9.11431C27.9996 10.9521 27.6446 12.9214 27.6948 14.9013C27.617 16.891 27.955 18.8751 28.6868 20.727C29.4187 22.5788 30.5282 24.2578 31.9452 25.6567ZM35.7845 7.59385C37.6188 5.76743 40.1018 4.74204 42.6903 4.74204C45.2787 4.74204 47.7617 5.76743 49.596 7.59385C50.5288 8.56022 51.2582 9.70404 51.7408 10.9575C52.2234 12.211 52.4495 13.5486 52.4056 14.891C52.4954 17.5638 51.5473 20.1677 49.7603 22.1573C48.8676 23.1242 47.7738 23.8833 46.5557 24.3812C45.3376 24.8792 44.0252 25.1038 42.7109 25.0392C41.4251 25.0704 40.147 24.8298 38.9605 24.3332C37.774 23.8366 36.7055 23.0952 35.8252 22.1573C34.0545 20.1449 33.0779 17.5562 33.0779 14.8756C33.0779 12.195 34.0545 9.60627 35.8252 7.59385H35.7845ZM249.709 19.0182C253.03 19.0182 255.613 18.1125 257.459 16.3011C258.364 15.4496 259.082 14.4184 259.566 13.2735C260.05 12.1285 260.289 10.8951 260.268 9.65229C260.279 8.46473 260.084 7.2843 259.692 6.16325C259.285 5.07758 258.666 4.08388 257.87 3.24023C256.904 2.25906 255.708 1.53396 254.392 1.13034C252.677 0.593072 250.888 0.335904 249.092 0.368722C247.661 0.368722 246.231 0.368722 244.8 0.368722C243.369 0.368722 242.093 0.368722 240.879 0.368722V29.2487H245.953V18.8947C246.776 18.9771 248.032 19.0182 249.709 19.0182ZM254.855 9.61112C254.894 10.2627 254.782 10.9144 254.529 11.5159C254.276 12.1174 253.887 12.6525 253.394 13.0796C252.272 13.9194 250.893 14.3415 249.493 14.2735C248.557 14.2735 247.362 14.2015 245.901 14.0677V5.21635L249.534 5.13403C253.126 5.11344 254.906 6.61608 254.906 9.61112H254.855Z" fill="url(#paint0_linear_3103_22403)"/>
<defs>
<linearGradient id="paint0_linear_3103_22403" x1="10.3947" y1="-8.57522" x2="249.792" y2="40.1234" gradientUnits="userSpaceOnUse">
<stop stop-color="#872A86"/>
<stop offset="0.5" stop-color="#442B86"/>
<stop offset="1" stop-color="#A81835"/>
</linearGradient>
</defs>
</svg>
