<svg width="16" height="16" viewBox="0 0 16 16" fill="none" xmlns="http://www.w3.org/2000/svg">
<path d="M13.3337 5.50016V12.0002C13.3337 14.0002 12.1403 14.6668 10.667 14.6668H5.33366C3.86033 14.6668 2.66699 14.0002 2.66699 12.0002V5.50016C2.66699 3.3335 3.86033 2.8335 5.33366 2.8335C5.33366 3.24683 5.50031 3.62016 5.77364 3.89349C6.04697 4.16683 6.42033 4.3335 6.83366 4.3335H9.16699C9.99366 4.3335 10.667 3.66016 10.667 2.8335C12.1403 2.8335 13.3337 3.3335 13.3337 5.50016Z" stroke="white" stroke-width="1.5" stroke-linecap="round" stroke-linejoin="round"/>
<path d="M10.6663 2.8335C10.6663 3.66016 9.99301 4.3335 9.16634 4.3335H6.83301C6.41967 4.3335 6.04632 4.16683 5.77299 3.89349C5.49966 3.62016 5.33301 3.24683 5.33301 2.8335C5.33301 2.00683 6.00634 1.3335 6.83301 1.3335H9.16634C9.57967 1.3335 9.95303 1.50017 10.2264 1.7735C10.4997 2.04683 10.6663 2.42016 10.6663 2.8335Z" stroke="white" stroke-width="1.5" stroke-linecap="round" stroke-linejoin="round"/>
<path d="M5.33301 8.6665H7.99967" stroke="white" stroke-width="1.5" stroke-linecap="round" stroke-linejoin="round"/>
<path d="M5.33301 11.3335H10.6663" stroke="white" stroke-width="1.5" stroke-linecap="round" stroke-linejoin="round"/>
</svg>
