<svg width="25" height="24" viewBox="0 0 25 24" fill="none" xmlns="http://www.w3.org/2000/svg">
<path d="M15.9746 11C16.803 11 17.4746 10.3284 17.4746 9.5C17.4746 8.67157 16.803 8 15.9746 8C15.1462 8 14.4746 8.67157 14.4746 9.5C14.4746 10.3284 15.1462 11 15.9746 11Z" fill="#F8F8F8"/>
<path d="M8.97461 11C9.80304 11 10.4746 10.3284 10.4746 9.5C10.4746 8.67157 9.80304 8 8.97461 8C8.14618 8 7.47461 8.67157 7.47461 9.5C7.47461 10.3284 8.14618 11 8.97461 11Z" fill="#F8F8F8"/>
<path d="M12.4746 18C14.7546 18 16.6946 16.34 17.4746 14H7.47461C8.25461 16.34 10.1946 18 12.4746 18Z" fill="#F8F8F8"/>
<path d="M12.4646 2C6.94461 2 2.47461 6.48 2.47461 12C2.47461 17.52 6.94461 22 12.4646 22C17.9946 22 22.4746 17.52 22.4746 12C22.4746 6.48 17.9946 2 12.4646 2ZM12.4746 20C8.05461 20 4.47461 16.42 4.47461 12C4.47461 7.58 8.05461 4 12.4746 4C16.8946 4 20.4746 7.58 20.4746 12C20.4746 16.42 16.8946 20 12.4746 20Z" fill="#F8F8F8"/>
</svg>
